# xmcd
#
# Track frame offsets: 
#        182
#        13967
#        26140
#        37730
#        47410
#        60567
#        74845
#        85245
#        99802
#        112595
#        123235
#        133942
#
# Disc length: 1949 seconds
#
# Revision: 2
# Processed by: cddbd v1.5.2PL0 Copyright (c) Steve Scherf et al.
# Submitted via: ExactAudioCopyFreeDBPlugin 1.0
#
DISCID=97079b0c
DTITLE=Various Artist - Riding Up Country
DYEAR=1995
DGENRE=Country
TTITLE0=Billie Jo Spears - Mr. Walker, It's All Over
TTITLE1=Johnny Cash - I Walk the Line
TTITLE2=Patsy Cline - Walkin' After Midnight
TTITLE3=Ned Miller - From a Jack to a King
TTITLE4=Jerry Lee Lewis - You Win Again
TTITLE5=George Jones - A Good Year for the Roses
TTITLE6=Freddie Fender - Before the Next Teardrop Falls
TTITLE7=Jeannie C. Riley - Harper Valley P.T.A.
TTITLE8=Faron Young - It's Four in the Morning
TTITLE9=Roger Miller - King of the Road
TTITLE10=Jimmy C. Newman - Louisiana Man
TTITLE11=Randy Travis - Dreaming
EXTD=Charly ST27
EXTT0=Billie Jo Spears
EXTT1=Johnny Cash
EXTT2=Patsy Cline
EXTT3=Ned Miller
EXTT4=Jerry Lee Lewis
EXTT5=George Jones
EXTT6=Freddie Fender
EXTT7=Jeannie C. Riley
EXTT8=Faron Young
EXTT9=Roger Miller
EXTT10=Jimmy C. Newman
EXTT11=Randy Travis
PLAYORDER=
